<?xml version="1.0" encoding="UTF-8"?>
<svg id="Layer_2" data-name="Layer 2" xmlns="http://www.w3.org/2000/svg" viewBox="0 0 521.38 431.19">
  <defs>
    <style>
      .cls-1 {
        fill: #75a9ce;
      }

      .cls-2 {
        fill: #367398;
      }

      .cls-3 {
        fill: #144f77;
      }
    </style>
  </defs>
  <g id="Layer_1-2" data-name="Layer 1">
    <g>
      <path class="cls-1" d="M241.36,64.51L47.05,319.57H0V125.42C0,56.16,56.15,0,125.42,0h10.9c46.06,0,85.67,26.37,105.04,64.51Z"/>
      <path class="cls-2" d="M477.86,31.94l-220.39,287.63H84.74L252.58,99.1l33.58-44.11s75.67-104.32,191.7-23.05Z"/>
      <path class="cls-3" d="M521.38,173.6v145.97h-226.23l.02-.02,99.81-131.8,101.98-134.67s23.69,37.06,24.2,69.65c.14,9,.21,28.03.22,50.87Z"/>
      <path class="cls-3" d="M46.99,369.18h7.1l23.97,43.26h1.62l25.4-43.26h6.69v62.01h-6.88v-48.83l-23.49,39.16h-4.49l-22.92-39.82v49.5h-7s-.11-62.12,0-62.01Z"/>
      <path class="cls-3" d="M174.11,398.85c5.47-3.44,12.48-8.02,9.29-19.74-3.18-11.71-21.77-9.93-21.77-9.93,0,0-23.69.25-23.43,0v62.01h29.67s15.66-1.14,19.1-13.75c3.05-11.71-7.77-17.95-12.86-18.59ZM144.88,374.4h22.92s8.12,1.05,9.94,7.16c1.81,6.12-3.35,14.81-9.84,15.57-6.11.19-23.02,0-23.02,0v-22.73ZM169.92,425.53c-6.11.19-25.04,0-25.04,0v-22.73h24.95s8.12,1.05,9.93,7.16c1.81,6.11-3.34,14.8-9.84,15.57Z"/>
      <rect class="cls-3" x="248.95" y="369.08" width="7.13" height="62.11"/>
      <rect class="cls-3" x="265.97" y="407.05" width="7.13" height="41.17" transform="translate(697.16 158.1) rotate(90)"/>
      <path class="cls-3" d="M342.29,369.08h-6.5l-26.93,62.11h7.45l7.26-18.27h30.75l8.02,18.27h7.45l-27.5-62.11ZM326.31,407.06l13.02-29.79,13.08,29.79h-26.1Z"/>
      <polygon class="cls-3" points="379.28 369.08 386.73 369.08 403.92 420.82 421.49 369.08 427.41 369.08 444.22 420.82 461.98 369.08 469.62 369.08 448.42 431.19 441.16 431.19 424.45 379.75 407.17 431.19 400.67 431.19 379.28 369.08"/>
    </g>
  </g>
</svg>